HIERARCHY
ROOT Hip
{
	OFFSET 0 1.131 0.0052
	CHANNELS 6 Xposition Yposition Zposition Xrotation Yrotation Zrotation
	JOINT Abdomen
	{
		OFFSET 0 -0.047353 -0.05
		CHANNELS 3 Xrotation Zrotation Yrotation
		JOINT Chest
		{
			OFFSET 0 0.132153 0.007439
			CHANNELS 3 Xrotation Zrotation Yrotation
			JOINT Neck
			{
				OFFSET 0 0.3078 0.006161
				CHANNELS 3 Xrotation Zrotation Yrotation
				JOINT Head_comp
				{
					OFFSET 0 0.0884 0.013
					CHANNELS 3 Xrotation Yrotation Zrotation
					End Site
					{
						OFFSET -0 0.156 0.0624
					}
				}
			}
			JOINT Left_Collar
			{
				OFFSET 0.02282 0.250342 0.017193
				CHANNELS 2 Yrotation Zrotation
				JOINT Left_Shoulder
				{
					OFFSET 0.15421 0 0
					CHANNELS 3 Xrotation Yrotation Zrotation
					JOINT Left_Forearm
					{
						OFFSET 0.265212 0 0
						CHANNELS 2 Yrotation Xrotation
						JOINT Left_Hand
						{
							OFFSET 0.27571 0 0
							CHANNELS 2 Zrotation Yrotation
							JOINT L1ProxPhalanx
							{
								OFFSET 0.014142 0.001733 0.014142
								CHANNELS 3 Yrotation Zrotation Xrotation
								JOINT L1MidPhalanx
								{
									OFFSET 0.04 0 0
									CHANNELS 1 Zrotation
									JOINT L1DistPhalanx
									{
										OFFSET 0.035 0 0
										CHANNELS 1 Zrotation
										End Site
										{
											OFFSET 0.029 -0 -0
										}
									}
								}
							}
							JOINT L2ProxPhalanx
							{
								OFFSET 0.0821037 0.001578 0.0219996
								CHANNELS 2 Yrotation Zrotation
								JOINT L2MidPhalanx
								{
									OFFSET 0.04 0 0
									CHANNELS 1 Zrotation
									JOINT L2DistPhalanx
									{
										OFFSET 0.028 0 0
										CHANNELS 1 Zrotation
										End Site
										{
											OFFSET 0.02 -0 -0
										}
									}
								}
							}
							JOINT L3ProxPhalanx
							{
								OFFSET 0.083 0 0
								CHANNELS 2 Yrotation Zrotation
								JOINT L3MidPhalanx
								{
									OFFSET 0.053 0 0
									CHANNELS 1 Zrotation
									JOINT L3DistPhalanx
									{
										OFFSET 0.03 0 0
										CHANNELS 1 Zrotation
										End Site
										{
											OFFSET 0.023 -0 -0
										}
									}
								}
							}
							JOINT L4ProxPhalanx
							{
								OFFSET 0.077274 -0.000761 -0.0207055
								CHANNELS 2 Yrotation Zrotation
								JOINT L4MidPhalanx
								{
									OFFSET 0.05 0 0
									CHANNELS 1 Zrotation
									JOINT L4DistPhalanx
									{
										OFFSET 0.03 0 0
										CHANNELS 1 Zrotation
										End Site
										{
											OFFSET 0.023 -0 -0
										}
									}
								}
							}
							JOINT L5ProxPhalanx
							{
								OFFSET 0.0675499 -0.001644 -0.039
								CHANNELS 2 Yrotation Zrotation
								JOINT L5MidPhalanx
								{
									OFFSET 0.04 0 0
									CHANNELS 1 Zrotation
									JOINT L5DistPhalanx
									{
										OFFSET 0.021 0 0
										CHANNELS 1 Zrotation
										End Site
										{
											OFFSET 0.022 -0 -0
										}
									}
								}
							}
						}
					}
				}
			}
			JOINT Right_Collar
			{
				OFFSET -0.02282 0.250342 0.017193
				CHANNELS 2 Yrotation Zrotation
				JOINT Right_Shoulder
				{
					OFFSET -0.15421 0 0
					CHANNELS 3 Xrotation Yrotation Zrotation
					JOINT Right_Forearm
					{
						OFFSET -0.265212 0 0
						CHANNELS 2 Yrotation Xrotation
						JOINT Right_Hand
						{
							OFFSET -0.27571 3e-006 0
							CHANNELS 2 Zrotation Yrotation
							JOINT R1ProxPhalanx
							{
								OFFSET -0.014142 0.001733 0.014142
								CHANNELS 3 Yrotation Zrotation Xrotation
								JOINT R1MidPhalanx
								{
									OFFSET -0.04 0 0
									CHANNELS 1 Zrotation
									JOINT R1DistPhalanx
									{
										OFFSET -0.035 0 0
										CHANNELS 1 Zrotation
										End Site
										{
											OFFSET -0.029 -0 -0
										}
									}
								}
							}
							JOINT R2ProxPhalanx
							{
								OFFSET -0.0821037 0.001578 0.0219996
								CHANNELS 2 Yrotation Zrotation
								JOINT R2MidPhalanx
								{
									OFFSET -0.04 0 0
									CHANNELS 1 Zrotation
									JOINT R2DistPhalanx
									{
										OFFSET -0.028 0 0
										CHANNELS 1 Zrotation
										End Site
										{
											OFFSET -0.02 -0 -0
										}
									}
								}
							}
							JOINT R3ProxPhalanx
							{
								OFFSET -0.083 0 0
								CHANNELS 2 Yrotation Zrotation
								JOINT R3MidPhalanx
								{
									OFFSET -0.053 0 0
									CHANNELS 1 Zrotation
									JOINT R3DistPhalanx
									{
										OFFSET -0.03 0 0
										CHANNELS 1 Zrotation
										End Site
										{
											OFFSET -0.023 -0 -0
										}
									}
								}
							}
							JOINT R4ProxPhalanx
							{
								OFFSET -0.077274 -0.000761 -0.0207055
								CHANNELS 2 Yrotation Zrotation
								JOINT R4MidPhalanx
								{
									OFFSET -0.05 0 0
									CHANNELS 1 Zrotation
									JOINT R4DistPhalanx
									{
										OFFSET -0.03 0 0
										CHANNELS 1 Zrotation
										End Site
										{
											OFFSET -0.023 -0 -0
										}
									}
								}
							}
							JOINT R5ProxPhalanx
							{
								OFFSET -0.0675499 -0.001644 -0.039
								CHANNELS 2 Yrotation Zrotation
								JOINT R5MidPhalanx
								{
									OFFSET -0.04 0 0
									CHANNELS 1 Zrotation
									JOINT R5DistPhalanx
									{
										OFFSET -0.021 0 0
										CHANNELS 1 Zrotation
										End Site
										{
											OFFSET -0.022 -0 -0
										}
									}
								}
							}
						}
					}
				}
			}
		}
	}
	JOINT Left_Thigh
	{
		OFFSET 0.1118 -0.1612 -0.0442
		CHANNELS 3 Xrotation Zrotation Yrotation
		JOINT Left_Shin
		{
			OFFSET 0 -0.477856 0
			CHANNELS 1 Xrotation
			JOINT Left_Foot
			{
				OFFSET 0 -0.431952 0
				CHANNELS 2 Xrotation Zrotation
				JOINT Left_Toe
				{
					OFFSET 0 -0.0442 0.119
					CHANNELS 1 Xrotation
					End Site
					{
						OFFSET -0 -0 0.07
					}
				}
			}
		}
	}
	JOINT Right_Thigh
	{
		OFFSET -0.1118 -0.1612 -0.0442
		CHANNELS 3 Xrotation Zrotation Yrotation
		JOINT Right_Shin
		{
			OFFSET 0 -0.477856 0
			CHANNELS 1 Xrotation
			JOINT Right_Foot
			{
				OFFSET 0 -0.431952 0
				CHANNELS 2 Xrotation Zrotation
				JOINT Right_Toe
				{
					OFFSET 0 -0.0442 0.119
					CHANNELS 1 Xrotation
					End Site
					{
						OFFSET -0 -0 0.07
					}
				}
			}
		}
	}
}
MOTION
Frames: 8
Frame Time: 0.00998
-0.101054 -0.0617085 0.0447294 6.94399e-007 0.174957 0.0523999 0.0140873 0.0357075 0.0672643 0.0140912 -0.0587434 0.0669091 0.0140915 -0.0704918 0.0669088 -0.732671 0.142557 -0.0587453 -0.153403 2.14241 0.508741 -13.6913 -61.2056 -104.347 20.4137 1.9947 -0.636905 -18.0688 -88.448 149.748 -24.2476 -23.619 -14.1485 -15.8961 -10.2892 -1.24366 0 -63.117 -95.3803 -103.155 9.4946 -44.9589 -76.6686 -77.7464 11.663 -24.4653 -66.9215 -53.8543 -1.422 2.43398 9.24996 18.9395 54.7389 100.188 37.8804 -22.1134 -4.50954 48.7152 11.952 88.593 7.90338 17.5795 0.771774 54.2847 12.0184 -0.849582 0 64.3523 32.4893 6.59389 -3.01341 56.5519 59.8993 46.021 -7.94733 52.5558 71.3195 60.3531 -2.82233 -0.738771 -0.138738 6.66475 -3.84057 0.678641 0 -2.97925 -0.739375 -0.136702 7.08624 -4.10514 0.678869 0 
-0.101045 -0.0617084 0.0447341 -1.93491e-013 0.214487 0.0544273 -0.00233876 0.054587 0.0808717 -0.00233876 -0.0726796 0.0805005 -0.00233876 -0.0872155 0.0805005 -0.714494 0.110654 -0.0726796 -0.169905 2.14121 0.360124 -13.6643 -61.1866 -103.732 20.4699 0.629002 -0.183042 -18.0688 -88.448 149.748 -24.2476 -23.619 -14.1485 -15.8961 -10.2892 -1.24366 0 -63.117 -95.3803 -103.155 9.4946 -44.9589 -76.6686 -77.7464 11.663 -24.4653 -66.9215 -53.8543 -1.45497 2.49658 9.18267 19.1578 54.7399 99.5858 37.9556 -21.3703 -4.26265 47.7502 10.0992 86.4566 7.90338 17.5795 0.771774 56.0519 12.0184 -0.849582 0 64.3835 33.3988 7.2203 -3.01341 56.9363 59.8993 46.021 -7.94733 52.6109 71.3195 60.3531 -2.82297 -0.741747 -0.178158 6.65745 -3.83216 0.677641 0 -2.97709 -0.742487 -0.176148 7.09353 -4.11414 0.677905 0 
-0.101038 -0.0617084 0.0447273 6.93775e-007 0.253387 0.0564208 -0.0154678 0.0731652 0.094265 -0.015464 -0.0863956 0.0938734 -0.0154636 -0.103675 0.0938733 -0.699929 0.0792684 -0.0863968 -0.183878 2.11713 0.266472 -13.6691 -61.1622 -103.113 20.5076 -0.346153 0.180224 -18.0688 -88.448 149.748 -24.2476 -23.619 -14.1485 -15.8961 -10.2892 -1.24366 0 -63.117 -95.3803 -103.155 9.4946 -44.9589 -76.6686 -77.7464 11.663 -24.4653 -66.9215 -53.8543 -1.47571 2.53201 9.05038 19.3685 54.8265 99.0085 37.998 -20.815 -4.07548 46.6101 8.62329 84.7842 7.90338 17.5795 0.771774 57.49 12.0184 -0.849582 0 64.6659 34.139 7.73004 -3.01341 57.2209 59.8993 46.021 -7.94733 52.784 71.3195 60.3531 -2.82432 -0.744558 -0.216946 6.65027 -3.82318 0.676537 0 -2.97567 -0.74544 -0.214963 7.10071 -4.12227 0.67685 0 
-0.101035 -0.0617083 0.0447307 8.02572e-014 0.293231 0.0584654 -0.0285924 0.0921937 0.107982 -0.0285924 -0.100443 0.107573 -0.0285924 -0.120532 0.107573 -0.68537 0.0471432 -0.100443 -0.195288 2.06565 0.231338 -13.6975 -61.1151 -102.499 20.5644 -0.935749 0.42458 -18.0688 -88.448 149.748 -24.2476 -23.619 -14.1485 -15.8961 -10.2892 -1.24366 0 -63.117 -95.3803 -103.155 9.4946 -44.9589 -76.6686 -77.7464 11.663 -24.4653 -66.9215 -53.8543 -1.49986 2.58408 8.93973 19.5911 54.915 98.4775 38.0166 -20.4954 -3.95532 45.0914 7.88751 84.0578 7.90338 17.5795 0.771774 58.183 12.0184 -0.849582 0 65.4503 34.4956 7.97568 -3.01341 57.3581 59.8993 46.021 -7.94733 53.2646 71.3195 60.3531 -2.82505 -0.747168 -0.256698 6.64292 -3.81462 0.675135 0 -2.97357 -0.748192 -0.254742 7.10807 -4.13126 0.675496 0 
-0.100992 -0.0617088 0.0447706 2.78861e-006 0.370394 0.062445 -0.0449506 0.129023 0.134559 -0.0449352 -0.127654 0.134101 -0.0449339 -0.153184 0.134101 -0.667084 -0.0151436 -0.127658 -0.21659 1.98864 0.222488 -13.7147 -61.0444 -101.94 20.5176 -1.34698 0.603145 -18.0688 -88.448 149.748 -24.2476 -23.619 -14.1485 -15.8961 -10.2892 -1.24366 0 -63.117 -95.3803 -103.155 9.4946 -44.9589 -76.6686 -77.7464 11.663 -24.4653 -66.9215 -53.8543 -1.55074 2.67686 8.92816 19.8472 54.9281 98.0052 38.0349 -20.3648 -3.88616 43.317 7.7003 84.0387 7.90338 17.5795 0.766965 58.3197 12.0184 -0.849582 0 66.5934 34.566 8.02416 -3.01095 57.3852 59.8993 46.021 -7.94424 53.965 71.3314 60.3669 -2.82434 -0.754544 -0.333595 6.62867 -3.80016 0.674732 0 -2.96738 -0.755868 -0.331685 7.12231 -4.15077 0.67523 0 
-0.100947 -0.0617095 0.0448189 -1.00564e-013 0.450706 0.0665909 -0.0614226 0.167357 0.162215 -0.0614226 -0.15597 0.161717 -0.0614226 -0.187165 0.161717 -0.64867 -0.0799622 -0.15597 -0.241275 1.93061 0.245882 -13.7299 -60.9823 -101.446 20.4572 -1.66941 0.746446 -18.0688 -88.448 149.748 -24.2476 -23.619 -14.1485 -15.8961 -10.2892 -1.24366 0 -63.117 -95.3803 -103.155 9.4946 -44.9589 -76.6686 -77.7464 11.663 -24.4653 -66.9215 -53.8543 -1.60171 2.78009 8.93086 20.0948 54.9352 97.6057 38.0687 -20.3762 -3.88623 41.817 7.65599 84.1659 7.90338 17.5795 0.693121 58.3197 12.0184 -0.849582 0 67.5987 34.566 8.02416 -2.97339 57.3852 59.8993 46.021 -7.89699 54.5809 71.5136 60.5792 -2.82317 -0.762188 -0.413637 6.61385 -3.78554 0.67428 0 -2.9605 -0.763816 -0.411776 7.13714 -4.1715 0.674919 0 
-0.10099 -0.0617091 0.0448362 -1.01489e-014 0.450705 0.0665993 -0.0713532 0.167349 0.162216 -0.0713532 -0.15597 0.161717 -0.0713532 -0.187165 0.161717 -0.637692 -0.0797615 -0.15597 -0.239335 1.88768 0.293358 -13.785 -60.9344 -100.989 20.3749 -1.89093 0.847043 -18.0688 -88.448 149.748 -24.2476 -23.619 -14.1485 -15.8961 -10.2892 -1.24366 0 -63.117 -95.3803 -103.155 9.4946 -44.9589 -76.6686 -77.7464 11.663 -24.4653 -66.9215 -53.8543 -1.61826 2.88455 8.92112 20.2752 54.9586 97.3068 38.1229 -20.4615 -3.94612 41.0762 7.63404 84.2288 7.90338 17.5795 0.466531 58.3197 12.0184 -0.849582 0 68.0951 34.566 8.02416 -2.85818 57.3852 59.8993 46.021 -7.75206 54.8851 72.0726 61.2305 -2.8221 -0.759528 -0.413781 6.61385 -3.78663 0.671616 0 -2.95943 -0.761155 -0.411926 7.13714 -4.17259 0.672254 0 
-0.100937 -0.0617099 0.0448793 2.79915e-006 0.526919 0.0705505 -0.0811085 0.203708 0.188471 -0.0810931 -0.182847 0.187922 -0.0810918 -0.219416 0.187921 -0.62658 -0.141278 -0.18285 -0.258408 1.79877 0.356945 -13.8237 -60.8521 -100.611 20.2702 -2.06606 0.930923 -18.0688 -88.448 149.748 -24.2476 -23.619 -14.1485 -15.8961 -10.2892 -1.24366 0 -63.117 -95.3803 -103.155 9.4946 -44.9589 -76.6686 -77.7464 11.663 -24.4653 -66.9215 -53.8543 -1.66753 2.99417 8.9742 20.4656 54.9263 97.0711 38.1906 -20.5459 -4.01329 40.9261 7.62962 84.2415 7.90338 17.5795 0.121093 58.3197 12.0184 -0.849582 0 68.1957 34.566 8.02416 -2.68256 57.3852 59.8993 46.021 -7.53111 54.9467 72.9248 62.2234 -2.82115 -0.767422 -0.489706 6.59978 -3.77258 0.671812 0 -2.95307 -0.769367 -0.487895 7.15121 -4.1921 0.672636 0 
